<svg width="30" height="30" viewBox="0 0 24 24" fill="none" xmlns="http://www.w3.org/2000/svg">
<path fill-rule="evenodd" clip-rule="evenodd" d="M16.2859 16.2859C15.8914 16.6803 15.252 16.6803 14.8576 16.2859L12 13.4283L9.14242 16.2859C8.74801 16.6803 8.10855 16.6803 7.71414 16.2859C7.31973 15.8914 7.31973 15.252 7.71414 14.8576L10.5717 12L7.71414 9.14242C7.31973 8.74801 7.31973 8.10855 7.71414 7.71414C8.10855 7.31973 8.74801 7.31973 9.14242 7.71414L12 10.5717L14.8576 7.71414C15.252 7.31973 15.8914 7.31973 16.2859 7.71414C16.6803 8.10855 16.6803 8.74801 16.2859 9.14242L13.4283 12L16.2859 14.8576C16.6803 15.252 16.6803 15.8914 16.2859 16.2859Z" fill="#320545"/>
</svg>
